<?xml version="1.0" encoding="utf-8"?>
<!-- Generator: Adobe Illustrator 18.1.0, SVG Export Plug-In . SVG Version: 6.00 Build 0)  -->
<svg version="1.1" id="Layer_1" xmlns="http://www.w3.org/2000/svg" xmlns:xlink="http://www.w3.org/1999/xlink" x="0px" y="0px"
	 viewBox="0 0 100 100" enable-background="new 0 0 100 100" xml:space="preserve">
<polygon fill="#6E6F72" points="38.1,68.6 66,50 38.1,31.4 "/>
<path fill="#86C440" d="M29.7,78.8c0,3.1-2.5,5.6-5.6,5.6s-5.6-2.5-5.6-5.6c0-3.1,2.5-5.6,5.6-5.6S29.7,75.7,29.7,78.8z"/>
<circle fill="#0CBDDB" cx="24.1" cy="21.1" r="5.6"/>
<path fill="#0CBDDB" d="M33.6,17.4c4.5-2,9.4-3.2,14.7-3.2c16.3,0,30.2,11,34.4,26c1-0.3,2.1-0.5,3.2-0.5c0.2,0,0.3,0,0.5,0
	c-4.5-16.8-19.9-29.2-38.1-29.2c-6,0-11.6,1.3-16.7,3.7C32.5,15.1,33.1,16.2,33.6,17.4z"/>
<path fill="#86C440" d="M18.7,70.1c-3.9-5.7-6.2-12.7-6.2-20.1c0-7.5,2.3-14.4,6.3-20.2c-1.1-0.7-2-1.5-2.8-2.5
	C11.4,33.7,8.8,41.6,8.8,50c0,8.4,2.7,16.2,7.1,22.6C16.7,71.6,17.6,70.8,18.7,70.1z"/>
<path fill="#F58427" d="M85.9,60.2c-1.1,0-2.2-0.2-3.2-0.5c-4.2,15.1-18.1,26.2-34.5,26.2c-5.2,0-10.2-1.1-14.7-3.2
	c-0.5,1.2-1.2,2.2-2,3.2c5.1,2.4,10.8,3.7,16.8,3.7C66.6,89.5,82,77,86.5,60.1C86.3,60.1,86.1,60.2,85.9,60.2z"/>
<circle fill="#F58427" cx="85.9" cy="49.9" r="5.6"/>
</svg>
